<svg width="79" height="59" viewBox="0 0 79 59" fill="none" xmlns="http://www.w3.org/2000/svg">
<path d="M9.81369 58.4209H0.0546875V42.2681H3.74568V55.4698H9.81369V58.4209Z" fill="white"/>
<path d="M21.8472 58.4209H12.0195V42.2681H21.47V45.2306H15.7105V48.8239H21.0699V51.775H15.7105V55.4698H21.8472V58.4209Z" fill="white"/>
<path d="M28.1656 45.2306V55.4698H29.9939C31.5939 55.4698 32.8488 54.9966 33.7592 54.0506C34.6697 53.1043 35.125 51.8165 35.125 50.187C35.125 48.6474 34.6736 47.4369 33.7708 46.5543C32.8679 45.6718 31.6012 45.2306 29.9711 45.2306H28.1656ZM24.4746 58.4209V42.2684H30.2797C36.1 42.2684 39.0102 44.8928 39.0102 50.142C39.0102 52.6575 38.216 54.6663 36.6276 56.1683C35.0394 57.67 32.9232 58.4209 30.2797 58.4209H24.4746Z" fill="white"/>
<path d="M45.3742 58.5742C44.5664 58.5742 43.8808 58.3929 43.3173 58.0304C42.7533 57.668 42.3596 57.1712 42.1357 56.5407L43.3232 55.8549C43.659 56.785 44.3547 57.25 45.4102 57.25C45.93 57.25 46.3199 57.1494 46.5798 56.9484C46.8394 56.7474 46.9695 56.4855 46.9695 56.1623C46.9695 55.8236 46.8293 55.5654 46.5497 55.388C46.2698 55.2105 45.7741 55.0153 45.0624 54.8024C44.6626 54.6844 44.3387 54.5741 44.0908 54.4716C43.843 54.3692 43.5812 54.2252 43.3051 54.04C43.0292 53.855 42.8234 53.6243 42.6875 53.3484C42.5515 53.0728 42.4836 52.7494 42.4836 52.379C42.4836 51.6459 42.7475 51.0648 43.2752 50.635C43.803 50.2054 44.4387 49.9907 45.1826 49.9907C45.854 49.9907 46.4417 50.1523 46.9455 50.4752C47.4493 50.7986 47.8371 51.244 48.109 51.8115L46.9455 52.4735C46.5937 51.7013 46.0059 51.3149 45.1826 51.3149C44.7823 51.3149 44.4627 51.4076 44.2228 51.5928C43.9829 51.7781 43.8629 52.0284 43.8629 52.3435C43.8629 52.6509 43.9848 52.8931 44.2289 53.0707C44.4725 53.2478 44.9145 53.4352 45.5542 53.6322C45.874 53.7347 46.1078 53.8116 46.256 53.8629C46.4036 53.9139 46.6115 53.9948 46.8794 54.1051C47.1473 54.2155 47.3491 54.3258 47.4855 54.4362C47.6212 54.5465 47.7673 54.6844 47.9232 54.85C48.0791 55.0153 48.1889 55.2047 48.2529 55.4175C48.3169 55.6303 48.3489 55.8709 48.3489 56.1387C48.3489 56.8877 48.0749 57.4805 47.5271 57.9179C46.9794 58.3556 46.2618 58.5742 45.3742 58.5742Z" fill="white"/>
<path d="M54.8976 50.1448H56.277V58.4209H54.8976V54.8385H51.2993V58.4209H49.9199V50.1448H51.2993V53.538H54.8976V50.1448Z" fill="white"/>
<path d="M60.2175 56.4048C60.7893 56.9684 61.4951 57.25 62.3345 57.25C63.1741 57.25 63.8796 56.9684 64.4516 56.4048C65.0233 55.8412 65.3091 55.134 65.3091 54.2827C65.3091 53.4312 65.0233 52.7239 64.4516 52.1601C63.8796 51.597 63.1741 51.3149 62.3345 51.3149C61.4951 51.3149 60.7893 51.597 60.2175 52.1601C59.6456 52.7239 59.3601 53.4312 59.3601 54.2827C59.3601 55.134 59.6456 55.8412 60.2175 56.4048ZM65.4231 57.327C64.5793 58.1586 63.5499 58.5742 62.3345 58.5742C61.119 58.5742 60.0896 58.1586 59.246 57.327C58.4022 56.4955 57.9805 55.4808 57.9805 54.2827C57.9805 53.0846 58.4022 52.0699 59.246 51.2382C60.0896 50.4066 61.119 49.9907 62.3345 49.9907C63.5499 49.9907 64.5793 50.4066 65.4231 51.2382C66.2667 52.0699 66.6887 53.0846 66.6887 54.2827C66.6887 55.4808 66.2667 56.4955 65.4231 57.327Z" fill="white"/>
<path d="M69.8068 58.4209L67.4316 50.1448H68.883L70.6462 56.612L72.5535 50.1448H73.8249L75.72 56.612L77.4832 50.1448H78.9345L76.5596 58.4209H74.9644L73.1892 52.3793L71.4018 58.4209H69.8068Z" fill="white"/>
<path d="M35.0063 32.0893H19.9373V7.74062L35.0063 12.1515V32.0893ZM14.3213 0.000263214V37.2852H39.3838V8.93405L14.3213 0.000263214Z" fill="#00BDFF"/>
<path d="M11.9659 5.39642L6.60156 3.48411V37.2852H11.9659V5.39642Z" fill="#23EA00"/>
<path d="M4.62021 11.0684L0 9.49669V37.2852H4.62021V11.0684Z" fill="#FF3131"/>
</svg>
